<?xml version="1.0" encoding="UTF-8"?>
<svg id="_レイヤー_2" data-name="レイヤー_2" xmlns="http://www.w3.org/2000/svg" viewBox="0 0 570.81 129.53">
  <defs>
    <style>
      .cls-1 {
        fill: #0047ab;
      }

      .cls-2 {
        fill: #fff;
      }
    </style>
  </defs>
  <g id="_レイヤー_1-2" data-name="レイヤー_1">
    <g>
      <g>
        <path class="cls-2" d="M68.48,65.48L95.43,0h40.43v2.71h-3.22c-2.93,0-5.27.51-7.03,1.54-1.22.68-2.2,1.83-2.93,3.44-.54,1.17-.8,4.22-.8,9.16v65.48c0,5.08.27,8.25.8,9.52.54,1.27,1.64,2.38,3.3,3.33,1.66.95,3.88,1.43,6.66,1.43h3.22v2.71h-51.85v-2.71h3.22c2.93,0,5.27-.51,7.03-1.54,1.22-.68,2.2-1.85,2.93-3.52.54-1.17.81-4.25.81-9.23V8.72l-38.09,90.6h-1.76L19.48,9.38v69.95c0,4.88.12,7.89.37,9.01.63,2.44,2.01,4.43,4.14,5.97s5.46,2.31,10,2.31v2.71H0v-2.71h1.03c2.2.05,4.25-.3,6.15-1.06,1.9-.76,3.34-1.77,4.32-3.04.98-1.27,1.73-3.05,2.27-5.35.1-.54.15-3.03.15-7.47V16.85c0-5.03-.27-8.17-.81-9.41-.54-1.25-1.64-2.34-3.3-3.3-1.66-.95-3.88-1.43-6.67-1.43H0V0h40.58l27.91,65.48Z"/>
        <path class="cls-1" d="M51.27,25.09l17.21,40.39,15.08-36.64c4.17-9.77,6.05-15.64,7.75-18.82l2.29-5.57,1.83-4.44h40.43v2.71c-3.33.57-30.65,1.56-32.44,3.47-2.49,2.68-5.53,11.05-10.9,22.96l-21.94,46.9v31.33c0,6.69.27,10.84.82,12.47.55,1.62,1.63,3.06,3.25,4.3,1.62,1.24,3.77,1.86,6.46,1.86h5.67v3.53H29.98v-3.53h5.3c2.99,0,5.35-.67,7.09-2.01,1.29-.89,2.31-2.42,3.06-4.59.55-1.53.82-5.54.82-12.04v-25.98L22.45,25.89c-4.73-10.95-7.89-17.76-9.83-19.7C10.68,4.24,3.23,2.77,0,2.71V0h40.58"/>
      </g>
      <g>
        <path class="cls-1" d="M179.58,48.76v.7c-.85.11-1.5.36-1.96.74-.63.53-1.64,1.99-3.01,4.36l-5.6,9.35v6.25c0,1.33.07,2.16.21,2.49.14.32.42.61.83.86.41.25.96.37,1.65.37h1.45v.7h-14.49v-.7h1.35c.76,0,1.36-.13,1.81-.4.33-.18.59-.48.78-.91.14-.3.21-1.1.21-2.4v-5.18l-6.07-11.06c-1.21-2.18-2.06-3.47-2.55-3.86s-1.16-.59-1.98-.6v-.7h12.38v.7h-.55c-.75,0-1.27.11-1.57.32-.3.22-.45.44-.45.69,0,.46.51,1.61,1.52,3.45l4.67,8.55,4.65-7.79c1.16-1.9,1.73-3.17,1.73-3.79,0-.34-.17-.63-.5-.86-.43-.32-1.23-.51-2.38-.57v-.7h7.88Z"/>
        <path class="cls-2" d="M198.52,56.78v13.94c0,1.36.13,2.21.38,2.54s.77.55,1.54.64v.69h-7.26v-2.38c-.85,1.02-1.7,1.76-2.55,2.22-.85.46-1.8.7-2.86.7s-1.89-.31-2.68-.92c-.78-.62-1.3-1.34-1.57-2.16s-.4-2.27-.4-4.32v-7.06c0-1.35-.12-2.18-.37-2.51-.25-.33-.77-.55-1.55-.65v-.7h7.26v12.17c0,1.27.06,2.09.18,2.46s.31.65.57.84.56.29.9.29c.46,0,.87-.12,1.24-.36.51-.33,1.12-1,1.83-2v-9.52c0-1.35-.12-2.18-.37-2.51-.25-.33-.77-.55-1.55-.65v-.7h7.26Z"/>
        <path class="cls-2" d="M214.27,56.28l.29,6.07h-.65c-.77-1.8-1.58-3.03-2.41-3.69-.83-.66-1.66-.99-2.49-.99-.52,0-.96.17-1.33.52-.37.35-.55.75-.55,1.21,0,.34.13.67.38.99.41.52,1.54,1.41,3.41,2.68,1.87,1.26,3.09,2.34,3.68,3.22.59.88.89,1.87.89,2.96,0,.99-.25,1.96-.74,2.91s-1.19,1.68-2.09,2.19-1.9.76-2.99.76c-.85,0-1.99-.27-3.41-.8-.38-.14-.64-.21-.78-.21-.42,0-.77.32-1.05.95h-.63l-.3-6.4h.65c.57,1.68,1.35,2.93,2.35,3.77s1.94,1.26,2.83,1.26c.61,0,1.11-.19,1.5-.56.39-.37.58-.83.58-1.36,0-.61-.19-1.14-.57-1.58s-1.23-1.12-2.55-2.02c-1.94-1.35-3.2-2.37-3.77-3.08-.84-1.04-1.26-2.19-1.26-3.45,0-1.37.47-2.61,1.42-3.72s2.31-1.67,4.1-1.67c.96,0,1.9.23,2.8.7.34.19.62.29.84.29.23,0,.41-.05.55-.14.14-.09.36-.36.67-.81h.65Z"/>
        <path class="cls-2" d="M228.02,71.96c-2.17,1.92-4.12,2.88-5.85,2.88-1.02,0-1.86-.33-2.53-1-.67-.67-1.01-1.5-1.01-2.5,0-1.36.58-2.58,1.75-3.67,1.17-1.09,3.71-2.53,7.64-4.33v-1.79c0-1.35-.07-2.19-.22-2.54-.15-.35-.42-.65-.83-.91-.41-.26-.86-.39-1.37-.39-.83,0-1.5.18-2.04.55-.33.23-.5.5-.5.8,0,.27.18.6.53.99.48.55.72,1.07.72,1.58,0,.62-.23,1.15-.69,1.59-.46.44-1.07.66-1.82.66-.8,0-1.47-.24-2.01-.72s-.81-1.05-.81-1.69c0-.91.36-1.79,1.09-2.62s1.73-1.47,3.03-1.91,2.64-.67,4.04-.67c1.69,0,3.02.36,4.01,1.08.98.72,1.62,1.5,1.91,2.33.18.53.27,1.76.27,3.68v6.91c0,.81.03,1.32.1,1.53.06.21.16.36.29.47s.27.15.44.15c.33,0,.67-.23,1.01-.7l.57.46c-.63.94-1.29,1.62-1.97,2.05-.68.43-1.45.64-2.31.64-1.02,0-1.81-.24-2.38-.71-.57-.48-.92-1.2-1.05-2.16ZM228.02,70.57v-5.96c-1.54.9-2.68,1.87-3.43,2.89-.5.69-.74,1.38-.74,2.08,0,.58.21,1.1.63,1.54.32.34.76.51,1.33.51.63,0,1.37-.36,2.21-1.07Z"/>
        <path class="cls-2" d="M244.93,48.76v16.99l4.13-4.06c.85-.83,1.38-1.42,1.59-1.79.21-.37.31-.72.31-1.07s-.14-.63-.42-.86-.83-.39-1.64-.5v-.7h7.98v.7c-.76.04-1.43.22-2,.54-.57.32-1.69,1.3-3.35,2.92l-1.94,1.9,4.19,6.13c1.69,2.49,2.69,3.88,3.01,4.19.43.43.98.67,1.64.72v.69h-9.2v-.69c.41,0,.7-.08.89-.23.18-.15.28-.32.28-.5,0-.29-.27-.83-.8-1.62l-3.52-5.16-1.14,1.12v3.2c0,1.36.13,2.21.38,2.54.25.34.77.55,1.56.64v.69h-9.2v-.69c.75-.08,1.28-.32,1.6-.72.22-.28.32-1.1.32-2.46v-18.09c0-1.35-.12-2.18-.37-2.51-.25-.33-.76-.55-1.55-.65v-.7h7.26Z"/>
        <path class="cls-2" d="M276.58,56.78v13.94c0,1.36.13,2.21.38,2.54s.77.55,1.54.64v.69h-7.26v-2.38c-.85,1.02-1.7,1.76-2.55,2.22-.85.46-1.8.7-2.86.7s-1.89-.31-2.68-.92c-.78-.62-1.3-1.34-1.57-2.16-.27-.83-.4-2.27-.4-4.32v-7.06c0-1.35-.12-2.18-.37-2.51-.25-.33-.77-.55-1.55-.65v-.7h7.26v12.17c0,1.27.06,2.09.18,2.46.12.37.31.65.57.84.26.19.56.29.9.29.46,0,.87-.12,1.24-.36.51-.33,1.12-1,1.83-2v-9.52c0-1.35-.12-2.18-.37-2.51-.25-.33-.77-.55-1.55-.65v-.7h7.26Z"/>
        <path class="cls-2" d="M308.1,65.79l7.01-17.02h10.51v.7h-.84c-.76,0-1.37.13-1.83.4-.32.18-.57.48-.76.9-.14.3-.21,1.1-.21,2.38v17.02c0,1.32.07,2.15.21,2.48s.42.62.86.87c.43.25,1.01.37,1.73.37h.84v.7h-13.48v-.7h.84c.76,0,1.37-.13,1.83-.4.32-.18.57-.48.76-.91.14-.3.21-1.1.21-2.4v-19.14l-9.9,23.56h-.46l-10.05-23.38v18.19c0,1.27.03,2.05.1,2.34.17.63.52,1.15,1.08,1.55.55.4,1.42.6,2.6.6v.7h-8.84v-.7h.27c.57.01,1.11-.08,1.6-.28.5-.2.87-.46,1.12-.79s.45-.79.59-1.39c.02-.14.04-.79.04-1.94v-16.34c0-1.31-.07-2.12-.21-2.45-.14-.32-.43-.61-.86-.86-.43-.25-1.01-.37-1.73-.37h-.82v-.7h10.55l7.26,17.02Z"/>
        <path class="cls-2" d="M337.46,71.96c-2.17,1.92-4.12,2.88-5.85,2.88-1.02,0-1.86-.33-2.53-1-.67-.67-1.01-1.5-1.01-2.5,0-1.36.58-2.58,1.75-3.67,1.17-1.09,3.71-2.53,7.64-4.33v-1.79c0-1.35-.07-2.19-.22-2.54-.15-.35-.42-.65-.83-.91-.41-.26-.86-.39-1.37-.39-.83,0-1.5.18-2.04.55-.33.23-.49.5-.49.8,0,.27.18.6.53.99.48.55.72,1.07.72,1.58,0,.62-.23,1.15-.69,1.59-.46.44-1.07.66-1.82.66-.8,0-1.47-.24-2.01-.72-.54-.48-.81-1.05-.81-1.69,0-.91.36-1.79,1.09-2.62s1.73-1.47,3.03-1.91,2.64-.67,4.04-.67c1.69,0,3.03.36,4.01,1.08.98.72,1.62,1.5,1.91,2.33.18.53.27,1.76.27,3.68v6.91c0,.81.03,1.32.1,1.53.06.21.16.36.29.47s.27.15.44.15c.33,0,.67-.23,1.01-.7l.57.46c-.63.94-1.29,1.62-1.97,2.05-.68.43-1.45.64-2.31.64-1.02,0-1.81-.24-2.38-.71-.57-.48-.92-1.2-1.05-2.16ZM337.46,70.57v-5.96c-1.54.9-2.68,1.87-3.43,2.89-.5.69-.74,1.38-.74,2.08,0,.58.21,1.1.63,1.54.32.34.76.51,1.33.51.63,0,1.37-.36,2.21-1.07Z"/>
        <path class="cls-2" d="M354.2,50.27v6.51h4.23v1.89h-4.23v10.99c0,1.03.05,1.69.14,1.99.1.3.26.54.5.72.24.18.46.28.67.28.82,0,1.61-.63,2.34-1.89l.57.42c-1.03,2.44-2.7,3.66-5.01,3.66-1.13,0-2.08-.31-2.87-.94-.78-.63-1.28-1.33-1.5-2.1-.13-.43-.19-1.6-.19-3.5v-9.62h-2.32v-.67c1.6-1.13,2.96-2.32,4.08-3.56,1.12-1.24,2.1-2.63,2.94-4.17h.63Z"/>
        <path class="cls-2" d="M371.38,56.28l.29,6.07h-.65c-.78-1.8-1.58-3.03-2.41-3.69-.83-.66-1.66-.99-2.49-.99-.52,0-.96.17-1.33.52-.37.35-.55.75-.55,1.21,0,.34.13.67.38.99.41.52,1.54,1.41,3.41,2.68,1.87,1.26,3.09,2.34,3.68,3.22.59.88.89,1.87.89,2.96,0,.99-.25,1.96-.74,2.91-.5.95-1.19,1.68-2.1,2.19s-1.9.76-2.99.76c-.85,0-1.99-.27-3.41-.8-.38-.14-.64-.21-.78-.21-.42,0-.77.32-1.05.95h-.63l-.3-6.4h.65c.57,1.68,1.36,2.93,2.35,3.77,1,.84,1.94,1.26,2.83,1.26.61,0,1.11-.19,1.5-.56.39-.37.58-.83.58-1.36,0-.61-.19-1.14-.57-1.58s-1.23-1.12-2.55-2.02c-1.94-1.35-3.2-2.37-3.77-3.08-.84-1.04-1.26-2.19-1.26-3.45,0-1.37.47-2.61,1.42-3.72.95-1.11,2.31-1.67,4.1-1.67.96,0,1.9.23,2.8.7.34.19.62.29.84.29.23,0,.41-.05.55-.14.14-.09.36-.36.67-.81h.65Z"/>
        <path class="cls-2" d="M392.5,56.78v13.94c0,1.36.13,2.21.38,2.54s.77.55,1.54.64v.69h-7.26v-2.38c-.85,1.02-1.7,1.76-2.55,2.22-.85.46-1.8.7-2.86.7s-1.89-.31-2.68-.92c-.78-.62-1.3-1.34-1.57-2.16-.27-.83-.4-2.27-.4-4.32v-7.06c0-1.35-.12-2.18-.37-2.51-.25-.33-.77-.55-1.55-.65v-.7h7.26v12.17c0,1.27.06,2.09.18,2.46.12.37.31.65.57.84.26.19.56.29.9.29.46,0,.87-.12,1.24-.36.51-.33,1.12-1,1.83-2v-9.52c0-1.35-.12-2.18-.37-2.51-.25-.33-.77-.55-1.55-.65v-.7h7.26Z"/>
        <path class="cls-2" d="M405.39,56.25c1.55,0,2.99.4,4.32,1.2,1.33.8,2.34,1.94,3.04,3.41.69,1.47,1.04,3.08,1.04,4.84,0,2.53-.64,4.64-1.92,6.34-1.55,2.06-3.69,3.08-6.42,3.08s-4.74-.94-6.19-2.82-2.17-4.06-2.17-6.53.74-4.78,2.22-6.67c1.48-1.9,3.51-2.85,6.08-2.85ZM405.46,57.6c-.65,0-1.2.24-1.67.73-.46.49-.77,1.45-.91,2.89-.15,1.44-.22,3.44-.22,6.01,0,1.36.09,2.63.27,3.81.14.9.44,1.59.89,2.06s.98.7,1.56.7,1.05-.16,1.43-.48c.49-.43.82-1.03.99-1.81.25-1.21.38-3.64.38-7.31,0-2.16-.12-3.64-.36-4.45-.24-.81-.6-1.39-1.07-1.76-.33-.27-.76-.4-1.29-.4Z"/>
        <path class="cls-2" d="M435.46,62.89v7.16c0,1.4.08,2.28.26,2.64.17.36.48.65.91.87.44.22,1.24.32,2.41.32v.7h-13.12v-.7c1.19,0,2-.11,2.43-.33.43-.22.72-.51.9-.87.17-.36.26-1.23.26-2.63v-16.76c0-1.4-.09-2.28-.26-2.64-.17-.36-.47-.65-.91-.87s-1.24-.32-2.42-.32v-.7h11.25c3.71,0,6.37.66,7.98,1.98s2.42,2.97,2.42,4.95c0,1.68-.52,3.11-1.56,4.3s-2.47,2.01-4.3,2.44c-1.23.3-3.31.46-6.25.46ZM435.46,50.25v11.16c.42.03.74.04.95.04,1.55,0,2.74-.46,3.58-1.38.84-.92,1.26-2.35,1.26-4.27s-.42-3.32-1.26-4.21-2.09-1.33-3.75-1.33h-.78Z"/>
        <path class="cls-2" d="M458.46,56.25c1.55,0,2.99.4,4.32,1.2,1.33.8,2.34,1.94,3.04,3.41.69,1.47,1.04,3.08,1.04,4.84,0,2.53-.64,4.64-1.92,6.34-1.55,2.06-3.69,3.08-6.42,3.08s-4.74-.94-6.19-2.82-2.17-4.06-2.17-6.53.74-4.78,2.22-6.67c1.48-1.9,3.51-2.85,6.08-2.85ZM458.54,57.6c-.65,0-1.2.24-1.67.73-.46.49-.77,1.45-.91,2.89-.15,1.44-.22,3.44-.22,6.01,0,1.36.09,2.63.27,3.81.14.9.44,1.59.89,2.06s.98.7,1.56.7,1.05-.16,1.43-.48c.49-.43.82-1.03.99-1.81.25-1.21.38-3.64.38-7.31,0-2.16-.12-3.64-.36-4.45-.24-.81-.6-1.39-1.07-1.76-.33-.27-.76-.4-1.29-.4Z"/>
        <path class="cls-2" d="M476.95,56.78v4.04c1.18-1.84,2.21-3.06,3.1-3.67s1.75-.9,2.57-.9c.71,0,1.28.22,1.71.66.42.44.64,1.06.64,1.86,0,.85-.21,1.51-.62,1.98-.41.47-.91.7-1.5.7-.67,0-1.26-.22-1.75-.65-.49-.43-.79-.67-.88-.72-.13-.08-.27-.11-.44-.11-.37,0-.72.14-1.05.42-.52.43-.91,1.05-1.18,1.85-.41,1.23-.61,2.59-.61,4.08v4.09l.02,1.07c0,.72.04,1.19.13,1.39.15.34.38.59.68.75.3.16.8.26,1.51.29v.69h-9.62v-.69c.77-.06,1.3-.28,1.57-.64.27-.36.41-1.32.41-2.87v-9.85c0-1.02-.05-1.66-.15-1.94-.13-.36-.31-.62-.55-.78s-.67-.28-1.28-.34v-.7h7.28Z"/>
        <path class="cls-2" d="M493.94,50.27v6.51h4.23v1.89h-4.23v10.99c0,1.03.05,1.69.14,1.99.1.3.26.54.5.72.24.18.46.28.67.28.82,0,1.61-.63,2.34-1.89l.57.42c-1.03,2.44-2.7,3.66-5.01,3.66-1.13,0-2.08-.31-2.87-.94-.78-.63-1.28-1.33-1.5-2.1-.13-.43-.19-1.6-.19-3.5v-9.62h-2.32v-.67c1.6-1.13,2.96-2.32,4.08-3.56,1.12-1.24,2.1-2.63,2.94-4.17h.63Z"/>
        <path class="cls-2" d="M507.67,58.64v12.36c0,1.19.13,1.94.38,2.25.41.47,1.16.69,2.25.65v.69h-10.49v-.69c.8-.01,1.37-.1,1.7-.28.34-.17.57-.41.7-.71s.19-.94.19-1.9v-12.36h-2.59v-1.87h2.59v-1.31l-.02-.9c0-1.83.67-3.35,2.01-4.57,1.34-1.22,3.15-1.83,5.44-1.83,1.56,0,2.72.29,3.48.88.75.58,1.13,1.23,1.13,1.94,0,.57-.24,1.07-.7,1.49-.47.42-1.09.63-1.87.63-.66,0-1.18-.17-1.57-.51-.39-.34-.58-.72-.58-1.14,0-.11.04-.35.11-.7.05-.22.08-.42.08-.61,0-.27-.08-.46-.23-.59-.2-.19-.45-.29-.74-.29-.37,0-.68.15-.92.46-.25.3-.37.79-.37,1.47l.04,3.33v2.27h2.63v1.87h-2.63Z"/>
        <path class="cls-2" d="M521.24,56.25c1.55,0,2.99.4,4.32,1.2,1.33.8,2.34,1.94,3.04,3.41.69,1.47,1.04,3.08,1.04,4.84,0,2.53-.64,4.64-1.92,6.34-1.55,2.06-3.69,3.08-6.42,3.08s-4.74-.94-6.19-2.82-2.17-4.06-2.17-6.53.74-4.78,2.22-6.67c1.48-1.9,3.51-2.85,6.08-2.85ZM521.32,57.6c-.65,0-1.2.24-1.67.73-.46.49-.77,1.45-.91,2.89-.15,1.44-.22,3.44-.22,6.01,0,1.36.09,2.63.27,3.81.14.9.44,1.59.89,2.06s.98.7,1.56.7,1.05-.16,1.43-.48c.49-.43.82-1.03.99-1.81.25-1.21.38-3.64.38-7.31,0-2.16-.12-3.64-.36-4.45-.24-.81-.6-1.39-1.07-1.76-.33-.27-.76-.4-1.29-.4Z"/>
        <path class="cls-2" d="M539.32,48.76v22.13c0,1.26.15,2.06.44,2.41s.86.55,1.71.6v.69h-9.62v-.69c.79-.03,1.37-.25,1.75-.69.25-.29.38-1.07.38-2.32v-18.43c0-1.24-.15-2.04-.44-2.39s-.86-.55-1.7-.6v-.7h7.46Z"/>
        <path class="cls-2" d="M550.13,56.78v14.11c0,1.26.15,2.06.44,2.41.29.35.86.55,1.71.6v.69h-9.62v-.69c.79-.03,1.37-.25,1.75-.69.25-.29.38-1.07.38-2.32v-10.4c0-1.26-.15-2.06-.44-2.41-.29-.35-.86-.55-1.69-.6v-.7h7.46ZM547.47,48.15c.83,0,1.52.29,2.09.87.57.58.86,1.27.86,2.09s-.29,1.5-.87,2.08c-.58.57-1.27.86-2.08.86s-1.5-.29-2.08-.86c-.57-.57-.86-1.26-.86-2.08s.29-1.51.86-2.09c.57-.58,1.26-.87,2.08-.87Z"/>
        <path class="cls-2" d="M562.42,56.25c1.55,0,2.99.4,4.32,1.2,1.33.8,2.34,1.94,3.04,3.41.69,1.47,1.04,3.08,1.04,4.84,0,2.53-.64,4.64-1.92,6.34-1.55,2.06-3.69,3.08-6.42,3.08s-4.74-.94-6.19-2.82-2.17-4.06-2.17-6.53.74-4.78,2.22-6.67c1.48-1.9,3.51-2.85,6.08-2.85ZM562.49,57.6c-.65,0-1.2.24-1.67.73-.46.49-.77,1.45-.91,2.89-.15,1.44-.22,3.44-.22,6.01,0,1.36.09,2.63.27,3.81.14.9.44,1.59.89,2.06s.98.7,1.56.7,1.05-.16,1.43-.48c.49-.43.82-1.03.99-1.81.25-1.21.38-3.64.38-7.31,0-2.16-.12-3.64-.36-4.45-.24-.81-.6-1.39-1.07-1.76-.33-.27-.76-.4-1.29-.4Z"/>
      </g>
    </g>
  </g>
</svg>